<?xml version="1.0" standalone="no"?>
<!DOCTYPE svg PUBLIC "-//W3C//DTD SVG 1.1//EN" "http://www.w3.org/Graphics/SVG/1.1/DTD/svg11.dtd" >
<svg xmlns="http://www.w3.org/2000/svg">
<metadata></metadata>
<defs>
<font id="anchor_jackregular" horiz-adv-x="1024" >
<font-face units-per-em="2048" ascent="1638" descent="-410" />
<missing-glyph horiz-adv-x="456" />
<glyph horiz-adv-x="2048" />
<glyph horiz-adv-x="2048" />
<glyph unicode="&#xd;" horiz-adv-x="2048" />
<glyph unicode=" "  horiz-adv-x="456" />
<glyph unicode="&#x09;" horiz-adv-x="456" />
<glyph unicode="&#xa0;" horiz-adv-x="456" />
<glyph unicode="!" horiz-adv-x="989" d="M248 1536h512l-156 -1030h-203zM293 156q0 84 60.5 142t148.5 58t149.5 -58t61.5 -142t-61.5 -142.5t-149.5 -58.5q-86 0 -147.5 59.5t-61.5 141.5z" />
<glyph unicode="&#x22;" horiz-adv-x="823" d="M92 1536h273l-41 -561h-189zM463 1536h272l-43 -561h-188z" />
<glyph unicode="#" horiz-adv-x="1669" d="M92 403l82 228h225l103 276h-228l82 226h228l98 268h240l-99 -268h295l96 268h242l-98 -268h225l-82 -226h-225l-102 -276h229l-84 -228h-227l-97 -270h-241l98 270h-293l-98 -270h-240l96 270h-225zM643 631h291l100 276h-293z" />
<glyph unicode="$" horiz-adv-x="1263" d="M51 256l162 217q209 -158 381 -158q96 0 178 50l-481 280q-211 123 -211 363q0 164 110.5 284.5t315.5 175.5v222h266v-205q182 -10 348 -129l-139 -215q-123 96 -287 96q-92 0 -170 -45l424 -250q248 -145 248 -395q0 -158 -111.5 -283t-312.5 -186v-228h-266v207 q-248 39 -455 199z" />
<glyph unicode="%" horiz-adv-x="1972" d="M41 1182q0 164 122 280.5t296 116.5q92 0 190 -47q84 -49 170 -97.5t185 -48.5q162 0 305 150h258l-891 -1536h-258l704 1212q-55 -23 -106 -22q-62 0 -142 29v-17q0 -182 -118.5 -300t-296.5 -118q-174 0 -296 117t-122 281zM266 1180q0 -72 52.5 -121t127.5 -49 q76 0 129.5 49t53.5 121q0 70 -54.5 121t-128.5 51q-76 0 -128 -50.5t-52 -121.5zM1104 354q0 164 123 282t297 118q172 0 295 -118t123 -282t-123 -281.5t-295 -117.5q-174 0 -297 117.5t-123 281.5zM1339 354q0 -72 53.5 -122t131.5 -50q74 0 127 51t53 121 q0 72 -52.5 121t-127.5 49q-78 0 -131.5 -49t-53.5 -121z" />
<glyph unicode="&#x26;" horiz-adv-x="1816" d="M0 545q0 223 153.5 386t417.5 204q133 444 504 444q184 0 311 -120t127 -288q0 -299 -319 -387l98 -122l236 178l172 -213l-234 -181l359 -446h-801l-55 70q-160 -115 -348 -115q-272 0 -446.5 165t-174.5 425zM299 545q0 -139 96.5 -226.5t247.5 -87.5q74 0 152 54 q-222 295 -242 563q-119 -27 -186.5 -109t-67.5 -194zM930 1174q0 -59 45 -101.5t108 -42.5q66 0 111 42.5t45 101.5t-45 100t-111 41q-63 0 -108 -41t-45 -100z" />
<glyph unicode="'" horiz-adv-x="454" d="M92 1536h273l-80 -438l-150 -123z" />
<glyph unicode="(" horiz-adv-x="706" d="M102 612q0 473 328 1028l207 -96q-248 -465 -248 -932q0 -463 250 -940l-207 -96q-330 569 -330 1036z" />
<glyph unicode=")" horiz-adv-x="706" d="M72 -328q250 477 250 940q0 467 -248 932l207 96q326 -557 325 -1028q0 -471 -327 -1036z" />
<glyph unicode="*" horiz-adv-x="1150" d="M123 989v236l287 -21l-160 238l205 119l123 -261l124 261l205 -117l-159 -240l286 23v-236l-286 21l159 -236l-202 -119l-127 258l-123 -260l-203 119l160 236z" />
<glyph unicode="+" horiz-adv-x="1503" d="M154 776v275h467v485h272v-485h461v-275h-461v-510h-272v510h-467z" />
<glyph unicode="," horiz-adv-x="653" d="M39 -233l147 587h322l-270 -587h-199z" />
<glyph unicode="-" horiz-adv-x="811" d="M102 633v274h613v-274h-613z" />
<glyph unicode="." horiz-adv-x="684" d="M133 156q0 84 61.5 142t149.5 58t149.5 -58t61.5 -142t-61.5 -142.5t-149.5 -58.5t-149.5 58.5t-61.5 142.5z" />
<glyph unicode="/" horiz-adv-x="1077" d="M51 -145l719 1822h262l-717 -1822h-264z" />
<glyph unicode="0" horiz-adv-x="1556" d="M51 768q0 332 199 563q213 248 532 248q317 0 531 -250q200 -233 200 -561q0 -330 -200 -563q-215 -250 -531 -250q-319 0 -532 250q-199 231 -199 563zM768 229q209 14 334 174t125 365q0 207 -125 364.5t-334 172.5v-1076z" />
<glyph unicode="1" horiz-adv-x="1044" d="M305 0v1270l613 338v-1608h-613z" />
<glyph unicode="2" horiz-adv-x="1396" d="M0 0l827 1270q-72 37 -180 37q-279 0 -371 -203l-225 162q231 315 596 315q336 0 537 -233q121 -141 121 -322q0 -139 -70 -246l-330 -504h449v-276h-1354z" />
<glyph unicode="3" horiz-adv-x="1404" d="M31 160l164 219q180 -150 436 -150h10v457h-287v272h287v345q-227 -4 -410 -123l-145 225q225 172 553 172q276 0 461.5 -145.5t185.5 -358.5q0 -127 -78 -231q141 -125 142 -328q0 -244 -198 -401.5t-511 -157.5q-387 0 -610 205z" />
<glyph unicode="4" horiz-adv-x="1587" d="M18 244v239q10 12 344 410l541 643h418v-1024h223v-268h-223v-244h-612v244h-691zM393 512h316v369z" />
<glyph unicode="5" horiz-adv-x="1452" d="M31 195l172 221q213 -178 485 -191v594h-483v717h1059l2 -276h-748v-173q109 20 209 21q305 0 486.5 -156.5t181.5 -416.5q0 -254 -199 -417t-514 -163q-408 0 -651 240z" />
<glyph unicode="6" horiz-adv-x="1515" d="M47 768q0 360 223.5 586.5t581.5 226.5q223 0 446 -92l-108 -254q-160 80 -328 80q-59 0 -106 -8v-224q72 14 135 15q260 0 426 -155t166 -398q0 -266 -197 -436q-182 -158 -459 -158q-356 0 -568 221t-212 596zM756 229q31 -6 63 -6q172 0 276.5 88t104.5 230 q0 127 -86 205.5t-225 78.5q-63 0 -133 -20v-576z" />
<glyph unicode="7" horiz-adv-x="1329" d="M0 1260v276h1395l-707 -1536h-665l595 1260h-618z" />
<glyph unicode="8" horiz-adv-x="1527" d="M51 487q0 201 158 334q-74 106 -74 236q0 174 119 305q197 217 514 217t512 -217q119 -133 119 -305q0 -121 -76 -230q160 -150 160 -340q0 -188 -146 -325q-100 -94 -251.5 -150.5t-317.5 -56.5q-350 0 -569 207q-147 139 -148 325zM340 489q0 -106 125 -186t309 -80 q121 1 256 62l-622 344q-68 -51 -68 -140zM565 1260l522 -293q25 43 25 90q0 102 -97 177t-241 75q-100 0 -209 -49z" />
<glyph unicode="9" horiz-adv-x="1515" d="M39 989q0 256 188.5 422t485.5 166q336 0 553 -234q209 -225 209 -569q0 -373 -223.5 -597t-594.5 -224q-270 0 -526 137l143 242q164 -111 398 -111q47 0 96 6v219q-49 -10 -123 -10q-270 0 -438 153.5t-168 399.5zM324 989q0 -127 86 -205.5t225 -78.5q63 0 133 20v571 q-35 8 -82 9q-166 0 -264 -86t-98 -230z" />
<glyph unicode=":" horiz-adv-x="684" d="M133 156q0 84 61.5 142t149.5 58t149.5 -58t61.5 -142t-61.5 -142.5t-149.5 -58.5t-149.5 58.5t-61.5 142.5zM135 834q0 84 60.5 141t150.5 57q88 0 148.5 -57t60.5 -141t-60.5 -142.5t-148.5 -58.5t-149.5 58.5t-61.5 142.5z" />
<glyph unicode=";" horiz-adv-x="681" d="M90 -233l96 587h322l-270 -587h-148zM133 834q0 82 61.5 140t149.5 58t148.5 -57t60.5 -141q0 -82 -61.5 -141.5t-147.5 -59.5q-88 0 -149.5 58.5t-61.5 142.5z" />
<glyph unicode="&#x3c;" horiz-adv-x="684" d="M51 680l332 528l190 -153l-235 -375l235 -379l-190 -158z" />
<glyph unicode="=" horiz-adv-x="811" d="M102 197v274h613v-274h-613zM102 633v274h613v-274h-613z" />
<glyph unicode="&#x3e;" horiz-adv-x="684" d="M113 301l237 379l-237 375l194 153l330 -528l-330 -537z" />
<glyph unicode="?" horiz-adv-x="1298" d="M23 1423q264 154 528 154q283 0 469 -158.5t186 -388.5q0 -223 -172 -370.5t-469 -161.5v807h-10q-186 0 -387 -123zM377 158q0 82 61.5 139t147.5 57q88 0 149.5 -56t61.5 -140q0 -86 -60.5 -144.5t-150.5 -58.5q-88 0 -148.5 59.5t-60.5 143.5z" />
<glyph unicode="@" horiz-adv-x="1775" d="M51 733q0 377 260 613q248 225 635 225q414 0 645 -268q141 -164 142 -396q0 -186 -99.5 -333.5t-277.5 -225.5q-123 -53 -207 -53q-111 0 -125 115h-4q-115 -115 -244 -115q-150 0 -249 104.5t-99 268.5q0 223 137 371.5t338 148.5q162 0 260 -121l21 86h209l-127 -532 q-16 -70 -17 -78q0 -33 43 -33q111 0 191 109.5t80 273.5q0 217 -163 341t-454 124q-307 0 -493.5 -174t-186.5 -457q0 -281 172 -448.5t459 -167.5q305 0 553 180l102 -111q-287 -225 -653 -225q-389 0 -618.5 211t-229.5 567zM670 698q0 -82 47 -131t123 -49q102 0 178 85 t76 198q0 76 -47.5 124t-122.5 48q-102 0 -178 -82t-76 -193z" />
<glyph unicode="A" horiz-adv-x="1832" d="M59 0l605 1536h559l608 -1536h-709l-92 231h-581l-91 -231h-299zM549 485h381l-191 484z" />
<glyph unicode="B" horiz-adv-x="1622" d="M131 0v1536h948q113 0 215.5 -60.5t155.5 -156.5q55 -102 55 -211q0 -133 -104 -260q166 -137 166 -369q0 -123 -56.5 -233.5t-169 -178t-239.5 -67.5h-971zM799 276h266q86 0 147.5 59.5t61.5 143.5q0 88 -60.5 147.5t-148.5 59.5h-266v-410zM799 961h258q68 0 112.5 43 t44.5 106q0 59 -47 104.5t-110 45.5h-258v-299z" />
<glyph unicode="C" horiz-adv-x="1525" d="M51 768q0 170 69.5 325.5t186.5 254.5q274 231 611 231q332 0 591 -197l-163 -233q-181 151 -444 151h-3h-22v-1067h20q268 0 467 162l160 -235q-283 -205 -604 -205q-354 0 -607 225q-262 236 -262 588z" />
<glyph unicode="D" horiz-adv-x="1740" d="M131 0v1536h729q291 0 516 -164q319 -231 320 -602q0 -248 -152 -446q-111 -145 -296 -234.5t-388 -89.5h-729zM799 276h71q223 0 380 142.5t157 351.5q0 203 -156.5 346.5t-380.5 143.5h-71v-984z" />
<glyph unicode="E" horiz-adv-x="1490" d="M131 0v1536h1292l-2 -276h-622v-299h465v-277h-465v-408h659v-276h-1327z" />
<glyph unicode="F" horiz-adv-x="1447" d="M131 0v1536h1290v-276h-622v-299h465v-277h-465v-684h-668z" />
<glyph unicode="G" horiz-adv-x="1697" d="M51 768q0 170 69.5 325.5t186.5 254.5q276 231 617 231q311 0 585 -197l-163 -233q-175 151 -443 151h-4h-22v-1067h22q221 0 408 119v201h-207v276h483v-657q-268 -217 -678 -217q-326 0 -598 231q-117 98 -186.5 255t-69.5 327z" />
<glyph unicode="H" horiz-adv-x="1736" d="M131 0v1536h668v-575h524v575h289v-1536h-289v684h-524v-684h-668z" />
<glyph unicode="I" horiz-adv-x="925" d="M131 0v1536h668v-1536h-668z" />
<glyph unicode="J" horiz-adv-x="1292" d="M-51 131l168 225q153 -120 349 -120h3h20v1302h668v-895q0 -381 -317 -575q-180 -111 -402 -111q-299 0 -489 174z" />
<glyph unicode="K" horiz-adv-x="1679" d="M131 0v1536h668v-657l501 657h345l-498 -659l539 -746l-252 -178l-478 665l-157 -217v-401h-668z" />
<glyph unicode="L" horiz-adv-x="1439" d="M131 0v1536h668v-1260h659v-276h-1327z" />
<glyph unicode="M" horiz-adv-x="2185" d="M137 0v1536h643l338 -614l340 614h604v-1536h-669v836l-482 -881l-483 881v-836h-291z" />
<glyph unicode="N" horiz-adv-x="1703" d="M131 0v1536h279l880 -588v588h289v-1581l-1157 778v-733h-291z" />
<glyph unicode="O" horiz-adv-x="1800" d="M51 768q0 342 256 580q248 231 596 231t596 -231q256 -238 256 -580q0 -340 -253 -576.5t-597 -236.5q-350 0 -598 231q-256 238 -256 582zM877 233q264 0 427.5 153t163.5 382q0 223 -157 369q-164 150 -434 163v-1067z" />
<glyph unicode="P" horiz-adv-x="1646" d="M131 0v1536h787q270 0 456 -150q209 -168 209 -419q0 -254 -209 -422q-186 -150 -459 -150h-116v-395h-668zM799 672h116q168 0 273.5 83t105.5 210q0 129 -104.5 212t-271.5 83h-119v-588z" />
<glyph unicode="Q" horiz-adv-x="1853" d="M51 768q0 342 256 580q248 231 596 231q211 0 396.5 -93t306.5 -259q149 -204 149 -456q0 -220 -139 -443l188 -162l-180 -207l-199 170q-248 -174 -520 -174q-326 0 -598 231q-117 98 -186.5 255t-69.5 327zM877 231h12q190 0 315 88q-86 78 -219 193l180 209l232 -203 q72 127 71 250q0 225 -157 371q-164 150 -434 164v-1072z" />
<glyph unicode="R" horiz-adv-x="1646" d="M131 0v1536h787q287 0 476 -164t189 -405q0 -315 -313 -490l264 -362l-246 -160l-317 442q-59 -2 -172 -2v-395h-668zM799 672h116q168 0 273.5 83t105.5 210q0 129 -104.5 212t-271.5 83h-119v-588z" />
<glyph unicode="S" horiz-adv-x="1425" d="M41 205l180 217q211 -190 441 -191q123 0 225 41l-527 324q-282 173 -282 442q0 225 199.5 382t498.5 157q268 0 522 -162l-161 -223q-149 108 -355 108h-4q-96 0 -182 -26l516 -318q283 -174 283 -448q0 -231 -210 -391t-519 -160q-377 0 -625 248z" />
<glyph unicode="T" horiz-adv-x="1640" d="M-47 1260v276h1720v-276h-526v-1260h-668v1260h-526z" />
<glyph unicode="U" horiz-adv-x="1728" d="M131 641v895h668v-1303q29 -4 47 -4q199 0 334 121t135 293v893h289v-895q0 -293 -236 -494q-224 -192 -519 -192h-3q-223 0 -410 117q-135 86 -220 242.5t-85 326.5z" />
<glyph unicode="V" horiz-adv-x="1517" d="M-33 1536h715l285 -725l286 725h301l-608 -1536h-371z" />
<glyph unicode="W" horiz-adv-x="2363" d="M-33 1536h715l285 -725l286 725h301l285 -725l287 725h301l-608 -1536h-371l-252 635l-250 -635h-371z" />
<glyph unicode="X" horiz-adv-x="1562" d="M-31 0l441 836l-371 700h741l201 -385l225 385h326l-395 -676l454 -860h-737l-281 526l-278 -526h-326z" />
<glyph unicode="Y" horiz-adv-x="1503" d="M-31 1536h754l246 -469l254 469h317l-455 -846v-690h-661v690z" />
<glyph unicode="Z" horiz-adv-x="1540" d="M10 0l649 1260h-561v276h1440l-647 -1260h633v-276h-1514z" />
<glyph unicode="[" horiz-adv-x="579" d="M102 -424v2019h410v-227h-133v-1567h131v-225h-408z" />
<glyph unicode="\" horiz-adv-x="1030" d="M51 1694h244l688 -1694h-242z" />
<glyph unicode="]" horiz-adv-x="579" d="M72 -199h135v1565h-135v229h409v-2019h-409v225z" />
<glyph unicode="^" d="M84 1507l432 269l432 -269l-125 -153l-307 190l-305 -190z" />
<glyph unicode="_" d="M0 -279h1024v-204h-1024v204z" />
<glyph unicode="`" d="M268 1630l187 160l299 -326l-129 -28z" />
<glyph unicode="a" horiz-adv-x="1832" d="M59 0l605 1536h559l608 -1536h-709l-92 231h-581l-91 -231h-299zM549 485h381l-191 484z" />
<glyph unicode="b" horiz-adv-x="1622" d="M131 0v1536h948q113 0 215.5 -60.5t155.5 -156.5q55 -102 55 -211q0 -133 -104 -260q166 -137 166 -369q0 -123 -56.5 -233.5t-169 -178t-239.5 -67.5h-971zM799 276h266q86 0 147.5 59.5t61.5 143.5q0 88 -60.5 147.5t-148.5 59.5h-266v-410zM799 961h258q68 0 112.5 43 t44.5 106q0 59 -47 104.5t-110 45.5h-258v-299z" />
<glyph unicode="c" horiz-adv-x="1525" d="M51 768q0 170 69.5 325.5t186.5 254.5q274 231 611 231q332 0 591 -197l-163 -233q-181 151 -444 151h-3h-22v-1067h20q268 0 467 162l160 -235q-283 -205 -604 -205q-354 0 -607 225q-262 236 -262 588z" />
<glyph unicode="d" horiz-adv-x="1740" d="M131 0v1536h729q291 0 516 -164q319 -231 320 -602q0 -248 -152 -446q-111 -145 -296 -234.5t-388 -89.5h-729zM799 276h71q223 0 380 142.5t157 351.5q0 203 -156.5 346.5t-380.5 143.5h-71v-984z" />
<glyph unicode="e" horiz-adv-x="1490" d="M131 0v1536h1292l-2 -276h-622v-299h465v-277h-465v-408h659v-276h-1327z" />
<glyph unicode="f" horiz-adv-x="1447" d="M131 0v1536h1290v-276h-622v-299h465v-277h-465v-684h-668z" />
<glyph unicode="g" horiz-adv-x="1697" d="M51 768q0 170 69.5 325.5t186.5 254.5q276 231 617 231q311 0 585 -197l-163 -233q-175 151 -443 151h-4h-22v-1067h22q221 0 408 119v201h-207v276h483v-657q-268 -217 -678 -217q-326 0 -598 231q-117 98 -186.5 255t-69.5 327z" />
<glyph unicode="h" horiz-adv-x="1736" d="M131 0v1536h668v-575h524v575h289v-1536h-289v684h-524v-684h-668z" />
<glyph unicode="i" horiz-adv-x="925" d="M131 0v1536h668v-1536h-668z" />
<glyph unicode="j" horiz-adv-x="1292" d="M-51 131l168 225q153 -120 349 -120h3h20v1302h668v-895q0 -381 -317 -575q-180 -111 -402 -111q-299 0 -489 174z" />
<glyph unicode="k" horiz-adv-x="1679" d="M131 0v1536h668v-657l501 657h345l-498 -659l539 -746l-252 -178l-478 665l-157 -217v-401h-668z" />
<glyph unicode="l" horiz-adv-x="1439" d="M131 0v1536h668v-1260h659v-276h-1327z" />
<glyph unicode="m" horiz-adv-x="2185" d="M137 0v1536h643l338 -614l340 614h604v-1536h-669v836l-482 -881l-483 881v-836h-291z" />
<glyph unicode="n" horiz-adv-x="1703" d="M131 0v1536h279l880 -588v588h289v-1581l-1157 778v-733h-291z" />
<glyph unicode="o" horiz-adv-x="1800" d="M51 768q0 342 256 580q248 231 596 231t596 -231q256 -238 256 -580q0 -340 -253 -576.5t-597 -236.5q-350 0 -598 231q-256 238 -256 582zM877 233q264 0 427.5 153t163.5 382q0 223 -157 369q-164 150 -434 163v-1067z" />
<glyph unicode="p" horiz-adv-x="1646" d="M131 0v1536h787q270 0 456 -150q209 -168 209 -419q0 -254 -209 -422q-186 -150 -459 -150h-116v-395h-668zM799 672h116q168 0 273.5 83t105.5 210q0 129 -104.5 212t-271.5 83h-119v-588z" />
<glyph unicode="q" horiz-adv-x="1853" d="M51 768q0 342 256 580q248 231 596 231q211 0 396.5 -93t306.5 -259q149 -204 149 -456q0 -220 -139 -443l188 -162l-180 -207l-199 170q-248 -174 -520 -174q-326 0 -598 231q-117 98 -186.5 255t-69.5 327zM877 231h12q190 0 315 88q-86 78 -219 193l180 209l232 -203 q72 127 71 250q0 225 -157 371q-164 150 -434 164v-1072z" />
<glyph unicode="r" horiz-adv-x="1646" d="M131 0v1536h787q287 0 476 -164t189 -405q0 -315 -313 -490l264 -362l-246 -160l-317 442q-59 -2 -172 -2v-395h-668zM799 672h116q168 0 273.5 83t105.5 210q0 129 -104.5 212t-271.5 83h-119v-588z" />
<glyph unicode="s" horiz-adv-x="1425" d="M41 205l180 217q211 -190 441 -191q123 0 225 41l-527 324q-282 173 -282 442q0 225 199.5 382t498.5 157q268 0 522 -162l-161 -223q-149 108 -355 108h-4q-96 0 -182 -26l516 -318q283 -174 283 -448q0 -231 -210 -391t-519 -160q-377 0 -625 248z" />
<glyph unicode="t" horiz-adv-x="1640" d="M-47 1260v276h1720v-276h-526v-1260h-668v1260h-526z" />
<glyph unicode="u" horiz-adv-x="1728" d="M131 641v895h668v-1303q29 -4 47 -4q199 0 334 121t135 293v893h289v-895q0 -293 -236 -494q-224 -192 -519 -192h-3q-223 0 -410 117q-135 86 -220 242.5t-85 326.5z" />
<glyph unicode="v" horiz-adv-x="1517" d="M-33 1536h715l285 -725l286 725h301l-608 -1536h-371z" />
<glyph unicode="w" horiz-adv-x="2363" d="M-33 1536h715l285 -725l286 725h301l285 -725l287 725h301l-608 -1536h-371l-252 635l-250 -635h-371z" />
<glyph unicode="x" horiz-adv-x="1562" d="M-31 0l441 836l-371 700h741l201 -385l225 385h326l-395 -676l454 -860h-737l-281 526l-278 -526h-326z" />
<glyph unicode="y" horiz-adv-x="1503" d="M-31 1536h754l246 -469l254 469h317l-455 -846v-690h-661v690z" />
<glyph unicode="z" horiz-adv-x="1540" d="M10 0l649 1260h-561v276h1440l-647 -1260h633v-276h-1514z" />
<glyph unicode="{" horiz-adv-x="659" d="M51 481v226h19q115 0 114 98v498q0 117 64.5 203.5t146.5 86.5h197v-227h-49q-51 0 -70 -31q-14 -23 -14 -80v-462q0 -164 -187 -197v-10q100 -14 143.5 -63.5t43.5 -151.5v-459q0 -100 133 -111v-225h-197q-82 0 -146.5 84t-64.5 201v501q0 119 -125 119h-8z" />
<glyph unicode="|" horiz-adv-x="1705" d="M723 -340l2 2193h244l-4 -2193h-242z" />
<glyph unicode="}" horiz-adv-x="657" d="M72 -199q135 10 135 111v459q0 102 43 151t143 64v10q-186 33 -186 197v462q0 59 -17.5 85t-70.5 26h-47v227h196q82 0 145.5 -86t63.5 -204v-498q0 -98 125 -98h8v-226h-20q-113 0 -113 -119v-501q0 -117 -63.5 -201t-145.5 -84h-196v225z" />
<glyph unicode="~" horiz-adv-x="1705" d="M43 621l305 -97l322 275q174 152 452 151q233 0 394 -111.5t161 -277.5l-317 119l-328 -281q-176 -152 -448 -151q-225 0 -383 106.5t-158 266.5z" />
<glyph unicode="&#xa1;" horiz-adv-x="989" d="M264 -45l156 1030h203l135 -1030h-494zM311 1335q0 84 61.5 142.5t149.5 58.5q86 0 147.5 -59.5t61.5 -141.5q0 -84 -60.5 -142t-148.5 -58t-149.5 58t-61.5 142z" />
<glyph unicode="&#xa2;" horiz-adv-x="1472" d="M174 770q0 449 535 635v221h264v-211q215 -31 393 -160l-149 -221q-164 117 -375 117v-766h20q193 0 355 115l147 -221q-176 -139 -391 -160v-207h-262v217q-537 184 -537 641z" />
<glyph unicode="&#xa3;" horiz-adv-x="1542" d="M51 0l113 276h125v345h-125v278h125q8 317 199.5 500.5t506.5 183.5q244 0 469 -143l-135 -250q-162 119 -362 119h-21v-410h287v-264h-287v-356h541l-111 -279h-1325z" />
<glyph unicode="&#xa5;" horiz-adv-x="1497" d="M-10 1536h706l252 -475l252 475h316l-256 -473h229v-225h-350l-80 -148h430v-227h-428v-463h-617v463h-432v227h441l-88 148h-353v225h236z" />
<glyph unicode="&#xa7;" horiz-adv-x="1423" d="M113 647q0 233 254 346q-139 106 -140 246q0 152 134.5 248t359.5 96q221 0 426 -92l-90 -221q-160 86 -363 86q-68 0 -112.5 -25.5t-44.5 -58.5q0 -37 84 -82q127 -61 251 -123q272 -135 326 -178q117 -92 117 -246q0 -205 -240 -344q137 -113 137 -246 q0 -162 -144 -264t-378 -102q-260 0 -491 137l116 217q188 -113 357 -113q100 0 158.5 26t58.5 64q0 31 -82 74q-31 16 -240 115q-260 121 -331 180q-123 100 -123 260zM401 709q0 -84 129 -146l324 -151q174 51 174 163q0 82 -127 142l-326 151q-174 -55 -174 -159z" />
<glyph unicode="&#xa8;" d="M102 1556q0 68 48.5 113t119.5 45q70 0 119 -46t49 -112t-49 -111.5t-119 -45.5t-119 46t-49 111zM598 1556q0 66 49 112t121 46q70 0 119 -46t49 -112t-49 -111.5t-119 -45.5t-120 46t-50 111z" />
<glyph unicode="&#xa9;" horiz-adv-x="1783" d="M74 774q0 344 237.5 581.5t581.5 237.5q342 0 578.5 -240.5t236.5 -578.5q0 -340 -237.5 -579.5t-577.5 -239.5q-344 0 -581.5 237.5t-237.5 581.5zM233 772q0 -285 186.5 -471t473.5 -186q281 0 469 188t188 469q0 283 -187 472.5t-470 189.5q-287 0 -473.5 -186.5 t-186.5 -475.5zM383 774q0 225 160 356q172 141 368 142q203 0 373 -119l-100 -145q-121 94 -273 94h-18v-660h18q156 0 285 99l96 -144q-174 -129 -381 -129q-201 0 -370 146q-158 135 -158 360z" />
<glyph unicode="&#xaa;" horiz-adv-x="1042" d="M29 680l338 856h309l338 -856h-393l-52 129h-325l-49 -129h-166zM33 424v147h979v-147h-979zM301 950h211l-104 269z" />
<glyph unicode="&#xab;" horiz-adv-x="1202" d="M51 680l332 528l190 -153l-235 -375l235 -379l-190 -158zM571 680l332 528l193 -153l-238 -375l238 -379l-193 -158z" />
<glyph unicode="&#xac;" horiz-adv-x="1284" d="M43 633q0 274 164 465q176 205 438 205t438 -205q166 -195 166 -465q0 -274 -164 -465q-176 -205 -440 -205q-262 0 -438 205q-164 190 -164 465zM633 188q166 10 272.5 137.5t106.5 307.5q0 182 -106.5 309t-272.5 135v-889z" />
<glyph unicode="&#xad;" horiz-adv-x="811" d="M102 633v274h613v-274h-613z" />
<glyph unicode="&#xae;" horiz-adv-x="849" d="M47 1114q0 158 109.5 268.5t269.5 110.5q158 0 267.5 -110.5t109.5 -268.5t-109.5 -268.5t-267.5 -110.5q-160 0 -269.5 110.5t-109.5 268.5zM127 1114q0 -131 84 -215t215 -84q129 0 214 85t85 214t-84 214t-215 85t-215 -84t-84 -215zM272 918v380h195q72 0 118 -39.5 t46 -101.5q0 -74 -78 -121l65 -90l-61 -39l-78 109h-43v-98h-164zM436 1083h31q92 0 92 74q0 72 -92 72h-31v-146z" />
<glyph unicode="&#xaf;" d="M131 1458v203h784v-203h-784z" />
<glyph unicode="&#xb0;" horiz-adv-x="868" d="M92 1245q0 135 101.5 231.5t244.5 96.5t243.5 -96.5t100.5 -231.5t-100 -231t-244 -96q-143 0 -244.5 96t-101.5 231zM289 1245q0 -59 43 -99t106 -40t105.5 40t42.5 99t-43 100t-105 41q-61 0 -105 -41.5t-44 -99.5z" />
<glyph unicode="&#xb1;" horiz-adv-x="1261" d="M43 401q0 166 129 277q-61 88 -61 194q0 178 151.5 304.5t370.5 126.5t370.5 -126t151.5 -305q0 -102 -63 -190q133 -121 133 -281q0 -182 -170 -310t-422 -128q-250 0 -420 128t-170 310zM281 410q0 -94 102 -160t256 -66q102 1 211 52l-514 282q-55 -43 -55 -108z M467 1040l430 -241q20 33 21 73q0 84 -81 145.5t-198 61.5q-86 0 -172 -39z" />
<glyph unicode="&#xb4;" d="M283 1468l299 328l186 -160l-352 -276z" />
<glyph unicode="&#xb5;" horiz-adv-x="1251" d="M33 815q0 213 155.5 350.5t399.5 137.5q274 0 451.5 -186.5t177.5 -477.5q0 -307 -184.5 -492.5t-489.5 -185.5q-221 0 -434 115l118 198q135 -92 328 -92q39 0 78 6v181q-43 -10 -113 -11q-211 0 -349 129t-138 328zM266 817q0 -104 71 -169.5t185 -65.5q49 0 111 16 v473q-33 6 -66 6q-137 0 -219 -71.5t-82 -188.5z" />
<glyph unicode="&#xb6;" horiz-adv-x="1368" d="M92 1081q0 143 86 262q66 90 171.5 142.5t221.5 52.5h701l-88 -197v-1755h-199v1749h-207v-1749h-207v1043q-233 33 -356 150.5t-123 301.5z" />
<glyph unicode="&#xb7;" horiz-adv-x="722" d="M154 768q0 84 61 142.5t150 58.5q88 0 148 -58.5t60 -142.5t-60 -142.5t-148 -58.5t-149.5 58.5t-61.5 142.5z" />
<glyph unicode="&#xb8;" d="M283 -408l297 322l184 -158l-348 -272z" />
<glyph unicode="&#xba;" horiz-adv-x="974" d="M16 1120q0 188 138.5 319.5t337.5 131.5t337 -132t138 -319q0 -188 -138 -320t-337 -132t-337.5 132t-138.5 320zM41 424v147h899v-147h-899zM475 821q154 23 241 100.5t87 198.5q0 119 -85 197t-243 100v-596z" />
<glyph unicode="&#xbb;" horiz-adv-x="1202" d="M113 301l237 379l-237 375l194 153l330 -528l-330 -537zM635 301l237 379l-237 375l192 153l330 -528l-330 -537z" />
<glyph unicode="&#xbf;" horiz-adv-x="1298" d="M92 502q0 223 172 370.5t469 161.5v-807h12q188 0 388 123l143 -241q-258 -154 -543 -154q-176 0 -342 86q-299 156 -299 461zM502 1374q0 86 60.5 144.5t150.5 58.5q88 0 148.5 -59.5t60.5 -143.5q0 -80 -61.5 -138t-147.5 -58q-88 0 -149.5 57t-61.5 139z" />
<glyph unicode="&#xc0;" horiz-adv-x="1832" d="M59 0l605 1536h559l608 -1536h-709l-92 231h-581l-91 -231h-299zM549 485h381l-191 484zM663 1909l187 160l299 -326l-129 -28z" />
<glyph unicode="&#xc1;" horiz-adv-x="1832" d="M59 0l605 1536h559l608 -1536h-709l-92 231h-581l-91 -231h-299zM549 485h381l-191 484zM678 1747l299 328l186 -160l-352 -276z" />
<glyph unicode="&#xc2;" horiz-adv-x="1832" d="M59 0l605 1536h559l608 -1536h-709l-92 231h-581l-91 -231h-299zM479 1786l432 269l432 -269l-125 -153l-307 190l-305 -190zM549 485h381l-191 484z" />
<glyph unicode="&#xc3;" horiz-adv-x="1832" d="M59 0l605 1536h559l608 -1536h-709l-92 231h-581l-91 -231h-299zM485 1774q88 188 293 188q51 0 144.5 -33.5t140.5 -33.5q96 0 143 78l141 -97q-84 -188 -293 -188q-53 0 -146 34t-138 34q-96 0 -144 -80zM549 485h381l-191 484z" />
<glyph unicode="&#xc4;" horiz-adv-x="1832" d="M59 0l605 1536h559l608 -1536h-709l-92 231h-581l-91 -231h-299zM497 1835q0 68 48.5 113t119.5 45q70 0 119 -46t49 -112t-49 -111.5t-119 -45.5t-119 46t-49 111zM549 485h381l-191 484zM993 1835q0 66 49 112t121 46q70 0 119 -46t49 -112t-49 -111.5t-119 -45.5 t-120 46t-50 111z" />
<glyph unicode="&#xc5;" horiz-adv-x="1832" d="M59 0l603 1536h561l608 -1536h-709l-92 231h-581l-91 -231h-299zM549 485h381l-191 484zM602 1876q0 102 85 175t206 73t204 -73t83 -175q0 -100 -85 -174t-202 -74q-123 0 -207 73t-84 175zM768 1876q0 -45 36 -76t89 -31q51 0 86 31t35 76t-36 75.5t-85 30.5 q-53 0 -89 -30.5t-36 -75.5z" />
<glyph unicode="&#xc7;" horiz-adv-x="1525" d="M51 768q0 170 69.5 325.5t186.5 254.5q274 231 611 231q332 0 591 -197l-163 -233q-182 152 -447 151h-22v-1067h20q268 0 467 162l160 -235q-283 -205 -604 -205q-354 0 -607 225q-262 236 -262 588zM739 -395l232 293l149 -142l-348 -272z" />
<glyph unicode="&#xcc;" horiz-adv-x="925" d="M131 0v1536h668v-1536h-668zM221 1909l187 160l299 -326l-129 -28z" />
<glyph unicode="&#xcd;" horiz-adv-x="925" d="M131 0v1536h668v-1536h-668zM236 1747l299 328l186 -160l-352 -276z" />
<glyph unicode="&#xce;" horiz-adv-x="925" d="M37 1786l432 269l432 -269l-125 -153l-307 190l-305 -190zM131 0v1536h668v-1536h-668z" />
<glyph unicode="&#xcf;" horiz-adv-x="925" d="M55 1835q0 68 48.5 113t119.5 45q70 0 119 -46t49 -112t-49 -111.5t-119 -45.5t-119 46t-49 111zM131 0v1536h668v-1536h-668zM551 1835q0 66 49 112t121 46q70 0 119 -46t49 -112t-49 -111.5t-119 -45.5t-120 46t-50 111z" />
<glyph unicode="&#xd1;" horiz-adv-x="1703" d="M131 0v1536h279l880 -588v588h289v-1581l-1157 778v-733h-291zM430 1774q88 188 293 188q51 0 144.5 -33.5t140.5 -33.5q96 0 143 78l141 -97q-84 -188 -293 -188q-53 0 -146 34t-138 34q-96 0 -144 -80z" />
<glyph unicode="&#xd2;" horiz-adv-x="1800" d="M51 768q0 342 256 580q248 231 596 231t596 -231q256 -238 256 -580q0 -340 -253 -576.5t-597 -236.5q-350 0 -598 231q-256 238 -256 582zM665 1909l187 160l299 -326l-129 -28zM877 233q264 0 427.5 153t163.5 382q0 223 -157 369q-164 150 -434 163v-1067z" />
<glyph unicode="&#xd3;" horiz-adv-x="1800" d="M51 768q0 342 256 580q248 231 596 231t596 -231q256 -238 256 -580q0 -340 -253 -576.5t-597 -236.5q-350 0 -598 231q-256 238 -256 582zM680 1747l299 328l186 -160l-352 -276zM877 233q264 0 427.5 153t163.5 382q0 223 -157 369q-164 150 -434 163v-1067z" />
<glyph unicode="&#xd4;" horiz-adv-x="1800" d="M51 768q0 342 256 580q248 231 596 231t596 -231q256 -238 256 -580q0 -340 -253 -576.5t-597 -236.5q-350 0 -598 231q-256 238 -256 582zM481 1786l432 269l432 -269l-125 -153l-307 190l-305 -190zM877 233q264 0 427.5 153t163.5 382q0 223 -157 369 q-164 150 -434 163v-1067z" />
<glyph unicode="&#xd5;" horiz-adv-x="1800" d="M51 768q0 342 256 580q248 231 596 231t596 -231q256 -238 256 -580q0 -340 -253 -576.5t-597 -236.5q-350 0 -598 231q-256 238 -256 582zM487 1774q88 188 293 188q51 0 144.5 -33.5t140.5 -33.5q96 0 143 78l141 -97q-84 -188 -293 -188q-53 0 -146 34t-138 34 q-96 0 -144 -80zM877 233q264 0 427.5 153t163.5 382q0 223 -157 369q-164 150 -434 163v-1067z" />
<glyph unicode="&#xd6;" horiz-adv-x="1800" d="M51 768q0 342 256 580q248 231 596 231t596 -231q256 -238 256 -580q0 -340 -253 -576.5t-597 -236.5q-350 0 -598 231q-256 238 -256 582zM499 1835q0 68 48.5 113t119.5 45q70 0 119 -46t49 -112t-49 -111.5t-119 -45.5t-119 46t-49 111zM877 233q264 0 427.5 153 t163.5 382q0 223 -157 369q-164 150 -434 163v-1067zM995 1835q0 66 49 112t121 46q70 0 119 -46t49 -112t-49 -111.5t-119 -45.5t-120 46t-50 111z" />
<glyph unicode="&#xd9;" horiz-adv-x="1728" d="M131 641v895h668v-1303q29 -4 47 -4q199 0 334 121t135 293v893h289v-895q0 -293 -236 -494q-225 -193 -522 -192q-223 0 -410 117q-135 86 -220 242.5t-85 326.5zM655 1909l187 160l299 -326l-129 -28z" />
<glyph unicode="&#xda;" horiz-adv-x="1728" d="M131 641v895h668v-1303q29 -4 47 -4q199 0 334 121t135 293v893h289v-895q0 -293 -236 -494q-225 -193 -522 -192q-223 0 -410 117q-135 86 -220 242.5t-85 326.5zM670 1747l299 328l186 -160l-352 -276z" />
<glyph unicode="&#xdb;" horiz-adv-x="1728" d="M131 641v895h668v-1303q29 -4 47 -4q199 0 334 121t135 293v893h289v-895q0 -293 -236 -494q-225 -193 -522 -192q-223 0 -410 117q-135 86 -220 242.5t-85 326.5zM471 1786l432 269l432 -269l-125 -153l-307 190l-305 -190z" />
<glyph unicode="&#xdc;" horiz-adv-x="1728" d="M131 641v895h668v-1303q29 -4 47 -4q199 0 334 121t135 293v893h289v-895q0 -293 -236 -494q-225 -193 -522 -192q-223 0 -410 117q-135 86 -220 242.5t-85 326.5zM489 1835q0 68 48.5 113t119.5 45q70 0 119 -46t49 -112t-49 -111.5t-119 -45.5t-119 46t-49 111z M985 1835q0 66 49 112t121 46q70 0 119 -46t49 -112t-49 -111.5t-119 -45.5t-120 46t-50 111z" />
<glyph unicode="&#xdf;" horiz-adv-x="2347" d="M25 170l147 178q176 -158 365 -158q92 0 184 35l-434 267q-233 143 -234 366q0 184 165 313t413 129q219 0 430 -133l-133 -184q-141 90 -297 90q-82 0 -150 -22l426 -263q233 -143 234 -368q0 -190 -173 -322.5t-429 -132.5q-315 0 -514 205zM1198 170l148 178 q176 -158 364 -158q92 0 184 35l-434 267q-233 143 -233 366q0 184 164.5 313t412.5 129q219 0 430 -133l-133 -184q-141 90 -297 90q-82 0 -149 -22l426 -263q233 -143 233 -368q0 -190 -173 -322.5t-429 -132.5q-315 0 -514 205z" />
<glyph unicode="&#xe0;" horiz-adv-x="1478" d="M49 0l496 1268h463l501 -1268h-583l-76 190h-481l-74 -190h-246zM453 401h313l-156 398zM485 1630l187 160l299 -326l-129 -28z" />
<glyph unicode="&#xe1;" horiz-adv-x="1478" d="M49 0l496 1268h463l501 -1268h-583l-76 190h-481l-74 -190h-246zM453 401h313l-156 398zM500 1468l299 328l186 -160l-352 -276z" />
<glyph unicode="&#xe2;" horiz-adv-x="1478" d="M8 0l500 1268h459l501 -1268h-583l-76 190h-481l-74 -190h-246zM301 1507l432 269l432 -269l-125 -153l-307 190l-305 -190zM412 401h313l-156 398z" />
<glyph unicode="&#xe3;" horiz-adv-x="1478" d="M49 0l500 1268h459l501 -1268h-583l-76 190h-481l-74 -190h-246zM307 1495q88 188 293 188q51 0 144.5 -33.5t140.5 -33.5q96 0 143 78l141 -97q-84 -188 -292 -188q-53 0 -146.5 34t-138.5 34q-96 0 -143 -80zM453 401h313l-156 398z" />
<glyph unicode="&#xe4;" horiz-adv-x="1478" d="M2 0l500 1268h459l501 -1268h-583l-76 190h-481l-74 -190h-246zM319 1556q0 68 48.5 113t119.5 45q70 0 119 -46t49 -112t-49 -111.5t-119 -45.5t-119 46t-49 111zM406 401h313l-156 398zM815 1556q0 66 49 112t121 46q70 0 119 -46t49 -112t-49 -111.5t-119 -45.5 t-120 46t-50 111z" />
<glyph unicode="&#xe5;" horiz-adv-x="1509" d="M14 0l500 1268h459l502 -1268h-584l-76 190h-481l-74 -190h-246zM418 401h313l-156 398zM444 1610q0 102 85 175t206 73t204 -73t83 -175t-84 -175t-203 -73q-121 0 -206 73.5t-85 174.5zM610 1610q0 -45 36 -76t89 -31q51 0 87 32t36 75t-36 74.5t-87 31.5 q-53 0 -89 -30.5t-36 -75.5z" />
<glyph unicode="&#xe7;" horiz-adv-x="1257" d="M43 635q0 141 57.5 269t155.5 208q227 188 506 188q258 0 483 -159l-133 -193q-152 125 -369 125h-20v-880h20q217 0 383 133l129 -193q-229 -170 -507 -170q-262 0 -492 193q-98 82 -155.5 210t-57.5 269zM596 -383l201 297l184 -158l-348 -272z" />
<glyph unicode="&#xe8;" horiz-adv-x="1230" d="M111 0v1268h1065v-230h-514v-245h382v-228h-382v-338h542v-227h-1093zM352 1630l187 160l299 -326l-129 -28z" />
<glyph unicode="&#xe9;" horiz-adv-x="1230" d="M111 0v1268h1065v-230h-514v-245h382v-228h-382v-338h542v-227h-1093zM367 1468l299 328l186 -160l-352 -276z" />
<glyph unicode="&#xea;" horiz-adv-x="1230" d="M111 0v1268h1065v-230h-514v-245h382v-228h-382v-338h542v-227h-1093zM168 1507l432 269l432 -269l-125 -153l-307 190l-305 -190z" />
<glyph unicode="&#xeb;" horiz-adv-x="1230" d="M111 0v1268h1065v-230h-514v-245h382v-228h-382v-338h542v-227h-1093zM186 1556q0 68 48.5 113t119.5 45q70 0 119 -46t49 -112t-49 -111.5t-119 -45.5t-119 46t-49 111zM682 1556q0 66 49 112t121 46q70 0 119 -46t49 -112t-49 -111.5t-119 -45.5t-120 46t-50 111z" />
<glyph unicode="&#xf1;" horiz-adv-x="1253" d="M111 0l2 1266h225l727 -482v482h235v-1303l-952 641v-604h-237zM242 1567l180 -39l190 110q102 61 267 62q137 0 232 -45t95 -111l-186 47l-195 -114q-102 -59 -262 -60q-133 0 -227 43t-94 107z" />
<glyph unicode="&#xf2;" horiz-adv-x="1484" d="M43 635q0 283 213 477q205 188 492 188q285 0 489 -190q213 -199 213 -475q0 -281 -207.5 -476.5t-494.5 -195.5q-291 0 -494 191q-211 199 -211 481zM500 1630l186 160l299 -326l-129 -28zM723 190q236 35 360.5 152t124.5 293q0 174 -126 289.5t-359 150.5v-885z" />
<glyph unicode="&#xf3;" horiz-adv-x="1484" d="M43 635q0 283 213 477q205 188 492 188q285 0 489 -190q213 -199 213 -475q0 -281 -207.5 -476.5t-494.5 -195.5q-291 0 -494 191q-211 199 -211 481zM514 1468l299 328l186 -160l-352 -276zM723 190q236 35 360.5 152t124.5 293q0 174 -126 289.5t-359 150.5v-885z" />
<glyph unicode="&#xf4;" horiz-adv-x="1484" d="M43 635q0 283 213 477q205 188 492 188q285 0 489 -190q213 -199 213 -475q0 -281 -207.5 -476.5t-494.5 -195.5q-291 0 -494 191q-211 199 -211 481zM315 1507l433 269l432 -269l-125 -153l-307 190l-306 -190zM723 190q236 35 360.5 152t124.5 293q0 174 -126 289.5 t-359 150.5v-885z" />
<glyph unicode="&#xf5;" horiz-adv-x="1484" d="M43 635q0 283 213 477q205 188 492 188q285 0 489 -190q213 -199 213 -475q0 -281 -207.5 -476.5t-494.5 -195.5q-291 0 -494 191q-211 199 -211 481zM322 1495q88 188 292 188q51 0 144.5 -33.5t140.5 -33.5q96 0 143 78l142 -97q-84 -188 -293 -188q-53 0 -146.5 34 t-138.5 34q-96 0 -143 -80zM723 190q236 35 360.5 152t124.5 293q0 174 -126 289.5t-359 150.5v-885z" />
<glyph unicode="&#xf6;" horiz-adv-x="1484" d="M43 635q0 283 213 477q205 188 492 188q285 0 489 -190q213 -199 213 -475q0 -281 -207.5 -476.5t-494.5 -195.5q-291 0 -494 191q-211 199 -211 481zM334 1556q0 68 48 113t120 45q70 0 119 -46t49 -112t-49.5 -111.5t-118.5 -45.5q-70 0 -119 46t-49 111zM723 190 q236 35 360.5 152t124.5 293q0 174 -126 289.5t-359 150.5v-885zM829 1556q0 66 49.5 112t120.5 46q70 0 119 -46t49 -112t-49 -111.5t-119 -45.5t-120 46t-50 111z" />
<glyph unicode="&#xf7;" horiz-adv-x="1705" d="M254 512v199h1198v-199h-1198zM702 217q0 63 45.5 107.5t106.5 44.5t106.5 -44t45.5 -108q0 -59 -44 -104t-108 -45q-63 0 -107.5 43t-44.5 106zM702 1004q0 63 45.5 107t106.5 44t106.5 -44t45.5 -107q0 -61 -44 -106.5t-108 -45.5q-63 0 -107.5 44t-44.5 108z" />
<glyph unicode="&#xf8;" horiz-adv-x="1556" d="M0 274l135 78q-63 135 -63 283q0 266 211 477q188 188 491 188q309 0 555 -258l139 80l95 -161l-138 -80q53 -129 54 -246q0 -268 -211 -479q-193 -193 -492 -193q-293 0 -534 234l-150 -86zM752 190q238 37 363.5 154t125.5 291q1 57 -24 127l-465 -270v-302zM752 709 l366 211q-160 150 -366 155v-366z" />
<glyph unicode="&#xf9;" horiz-adv-x="1427" d="M111 526v742h551v-1075q16 -4 51 -5q154 0 264 100.5t110 241.5v738h238v-740q0 -236 -209 -407q-193 -158 -440 -158q-248 0 -406.5 158t-158.5 405zM500 1630l186 160l299 -326l-129 -28z" />
<glyph unicode="&#xfa;" horiz-adv-x="1427" d="M111 526v742h551v-1075q16 -4 51 -5q154 0 264 100.5t110 241.5v738h238v-740q0 -236 -209 -407q-193 -158 -440 -158q-248 0 -406.5 158t-158.5 405zM514 1468l299 328l186 -160l-352 -276z" />
<glyph unicode="&#xfb;" horiz-adv-x="1427" d="M111 526v742h551v-1075q16 -4 51 -5q154 0 264 100.5t110 241.5v738h238v-740q0 -236 -209 -407q-193 -158 -440 -158q-248 0 -406.5 158t-158.5 405zM315 1507l433 269l432 -269l-125 -153l-307 190l-306 -190z" />
<glyph unicode="&#xfc;" horiz-adv-x="1427" d="M111 526v742h551v-1075q16 -4 51 -5q154 0 264 100.5t110 241.5v738h238v-740q0 -236 -209 -407q-193 -158 -440 -158q-248 0 -406.5 158t-158.5 405zM334 1556q0 68 48 113t120 45q70 0 119 -46t49 -112t-49.5 -111.5t-118.5 -45.5q-70 0 -119 46t-49 111zM829 1556 q0 66 49.5 112t120.5 46q70 0 119 -46t49 -112t-49 -111.5t-119 -45.5t-120 46t-50 111z" />
<glyph unicode="&#xff;" horiz-adv-x="1239" d="M-25 1268h621l203 -387l211 387h260l-375 -699v-569h-545v569zM279 1556q0 68 48 113t119 45q70 0 119 -46t49 -112t-49 -111.5t-119 -45.5t-118.5 46t-48.5 111zM774 1556q0 66 49 112t121 46q70 0 119 -46t49 -112t-49 -111.5t-119 -45.5t-120 46t-50 111z" />
<glyph unicode="&#x178;" horiz-adv-x="1503" d="M-31 1536h754l246 -469l254 469h317l-455 -846v-690h-661v690zM421 1835q0 68 48.5 113t119.5 45q70 0 119 -46t49 -112t-49 -111.5t-119 -45.5t-119 46t-49 111zM917 1835q0 66 49 112t121 46q70 0 119 -46t49 -112t-49 -111.5t-119 -45.5t-120 46t-50 111z" />
<glyph unicode="&#x2c6;" d="M84 1507l432 269l432 -269l-125 -153l-307 190l-305 -190z" />
<glyph unicode="&#x2dc;" d="M90 1495q88 188 293 188q51 0 144.5 -33.5t140.5 -33.5q96 0 143 78l141 -97q-84 -188 -293 -188q-53 0 -146 34t-138 34q-96 0 -144 -80z" />
<glyph unicode="&#x2000;" horiz-adv-x="1062" />
<glyph unicode="&#x2001;" horiz-adv-x="2124" />
<glyph unicode="&#x2002;" horiz-adv-x="1062" />
<glyph unicode="&#x2003;" horiz-adv-x="2124" />
<glyph unicode="&#x2004;" horiz-adv-x="708" />
<glyph unicode="&#x2005;" horiz-adv-x="531" />
<glyph unicode="&#x2006;" horiz-adv-x="354" />
<glyph unicode="&#x2007;" horiz-adv-x="354" />
<glyph unicode="&#x2008;" horiz-adv-x="265" />
<glyph unicode="&#x2009;" horiz-adv-x="424" />
<glyph unicode="&#x200a;" horiz-adv-x="118" />
<glyph unicode="&#x2010;" horiz-adv-x="811" d="M102 633v274h613v-274h-613z" />
<glyph unicode="&#x2011;" horiz-adv-x="811" d="M102 633v274h613v-274h-613z" />
<glyph unicode="&#x2012;" horiz-adv-x="811" d="M102 633v274h613v-274h-613z" />
<glyph unicode="&#x2013;" horiz-adv-x="1257" d="M102 633v274h1059v-274h-1059z" />
<glyph unicode="&#x2014;" horiz-adv-x="2312" d="M102 635v272h2118v-272h-2118z" />
<glyph unicode="&#x2018;" horiz-adv-x="643" d="M31 946l270 588h240l-189 -588h-321z" />
<glyph unicode="&#x2019;" horiz-adv-x="643" d="M102 946l189 588h321l-270 -588h-240z" />
<glyph unicode="&#x201a;" horiz-adv-x="653" d="M-2 -233l188 587h322l-270 -587h-240z" />
<glyph unicode="&#x201c;" horiz-adv-x="1130" d="M88 1536h322l2 -588h-240zM575 1536h322l2 -588h-240z" />
<glyph unicode="&#x201d;" horiz-adv-x="1130" d="M240 946l51 588h321l-133 -588h-239zM727 946l51 588h322l-133 -588h-240z" />
<glyph unicode="&#x201e;" horiz-adv-x="1140" d="M-2 -233l188 587h322l-270 -587h-240zM485 -233l189 587h321l-270 -587h-240z" />
<glyph unicode="&#x2022;" horiz-adv-x="1282" d="M207 768q0 172 128 295t310 123t309 -122t127 -296t-127 -296t-309 -122t-310 123t-128 295z" />
<glyph unicode="&#x2026;" horiz-adv-x="1974" d="M102 156q0 84 61.5 142t149.5 58t149.5 -58t61.5 -142t-61.5 -142.5t-149.5 -58.5t-149.5 58.5t-61.5 142.5zM782 156q0 84 61.5 142t149.5 58q86 0 147.5 -59t61.5 -141t-61.5 -141.5t-147.5 -59.5q-88 0 -149.5 58.5t-61.5 142.5zM1458 156q0 84 61.5 142t149.5 58 t149.5 -59t61.5 -141t-61.5 -141.5t-149.5 -59.5t-149.5 59.5t-61.5 141.5z" />
<glyph unicode="&#x202f;" horiz-adv-x="424" />
<glyph unicode="&#x2039;" horiz-adv-x="684" d="M51 680l332 528l190 -153l-235 -375l235 -379l-190 -158z" />
<glyph unicode="&#x203a;" horiz-adv-x="684" d="M113 301l237 379l-237 375l194 153l330 -528l-330 -537z" />
<glyph unicode="&#x205f;" horiz-adv-x="531" />
<glyph unicode="&#x2122;" horiz-adv-x="1427" d="M31 1378v86h538v-86h-166v-395h-206v395h-166zM631 985l2 479h198l105 -190l106 190h189v-479h-209v260l-150 -274l-151 274v-260h-90z" />
<glyph unicode="&#xe000;" horiz-adv-x="1536" d="M0 0v1536h1536v-1536h-1536z" />
</font>
</defs>
</svg>
